<svg width="124" height="41" viewBox="0 0 124 41" fill="none" xmlns="http://www.w3.org/2000/svg">
<g filter="url(#filter0_d_32_94)">
<mask id="path-1-outside-1_32_94" maskUnits="userSpaceOnUse" x="10" y="10" width="104" height="21" fill="black">
<rect fill="white" x="10" y="10" width="104" height="21"/>
<path d="M15.9542 13.49V29H11.6422V13.49H15.9542ZM26.4837 16.548C27.9064 16.548 29.0357 17.0247 29.8717 17.978C30.7077 18.9167 31.1257 20.1927 31.1257 21.806V29H26.8137V22.378C26.8137 21.674 26.6304 21.124 26.2637 20.728C25.8971 20.3173 25.4057 20.112 24.7897 20.112C24.1444 20.112 23.6384 20.3173 23.2717 20.728C22.9051 21.124 22.7217 21.674 22.7217 22.378V29H18.4097V16.658H22.7217V18.418C23.1031 17.8607 23.6164 17.4133 24.2617 17.076C24.9071 16.724 25.6477 16.548 26.4837 16.548ZM38.7498 29.154C37.6351 29.154 36.6378 28.9707 35.7578 28.604C34.8924 28.2227 34.2031 27.7093 33.6898 27.064C33.1911 26.404 32.9124 25.6633 32.8538 24.842H37.0338C37.0924 25.238 37.2758 25.546 37.5838 25.766C37.8918 25.986 38.2731 26.096 38.7278 26.096C39.0798 26.096 39.3584 26.0227 39.5638 25.876C39.7691 25.7293 39.8718 25.5387 39.8718 25.304C39.8718 24.996 39.7031 24.7687 39.3658 24.622C39.0284 24.4753 38.4711 24.314 37.6938 24.138C36.8138 23.962 36.0804 23.764 35.4938 23.544C34.9071 23.324 34.3938 22.9647 33.9538 22.466C33.5284 21.9673 33.3158 21.2927 33.3158 20.442C33.3158 19.7087 33.5138 19.0487 33.9098 18.462C34.3058 17.8607 34.8851 17.384 35.6478 17.032C36.4251 16.68 37.3564 16.504 38.4418 16.504C40.0551 16.504 41.3238 16.9 42.2478 17.692C43.1718 18.484 43.7071 19.5253 43.8538 20.816H39.9598C39.8864 20.42 39.7104 20.1193 39.4318 19.914C39.1678 19.694 38.8084 19.584 38.3538 19.584C38.0018 19.584 37.7304 19.65 37.5398 19.782C37.3638 19.914 37.2758 20.0973 37.2758 20.332C37.2758 20.6253 37.4444 20.8527 37.7818 21.014C38.1191 21.1607 38.6618 21.3147 39.4098 21.476C40.3044 21.6667 41.0451 21.8793 41.6318 22.114C42.2331 22.3487 42.7538 22.73 43.1938 23.258C43.6484 23.7713 43.8758 24.4753 43.8758 25.37C43.8758 26.0887 43.6631 26.734 43.2378 27.306C42.8271 27.878 42.2331 28.3327 41.4558 28.67C40.6931 28.9927 39.7911 29.154 38.7498 29.154ZM53.2777 25.326V29H51.4077C48.2543 29 46.6777 27.438 46.6777 24.314V20.244H45.1597V16.658H46.6777V13.666H51.0117V16.658H53.2557V20.244H51.0117V24.38C51.0117 24.7173 51.085 24.9593 51.2317 25.106C51.393 25.2527 51.657 25.326 52.0237 25.326H53.2777ZM54.5514 22.818C54.5514 21.542 54.7788 20.4273 55.2334 19.474C55.7028 18.5207 56.3334 17.7873 57.1254 17.274C57.9321 16.7607 58.8268 16.504 59.8094 16.504C60.6601 16.504 61.3934 16.6727 62.0094 17.01C62.6254 17.3473 63.1021 17.802 63.4394 18.374V16.658H67.7514V29H63.4394V27.284C63.1021 27.856 62.6181 28.3107 61.9874 28.648C61.3714 28.9853 60.6454 29.154 59.8094 29.154C58.8268 29.154 57.9321 28.8973 57.1254 28.384C56.3334 27.8707 55.7028 27.1373 55.2334 26.184C54.7788 25.216 54.5514 24.094 54.5514 22.818ZM63.4394 22.818C63.4394 22.026 63.2194 21.4027 62.7794 20.948C62.3541 20.4933 61.8261 20.266 61.1954 20.266C60.5501 20.266 60.0148 20.4933 59.5894 20.948C59.1641 21.388 58.9514 22.0113 58.9514 22.818C58.9514 23.61 59.1641 24.2407 59.5894 24.71C60.0148 25.1647 60.5501 25.392 61.1954 25.392C61.8261 25.392 62.3541 25.1647 62.7794 24.71C63.2194 24.2553 63.4394 23.6247 63.4394 22.818Z"/>
<path d="M78.0626 29L74.9826 23.28H74.5206V29H70.2086V13.49H77.0066C78.2532 13.49 79.3092 13.71 80.1746 14.15C81.0399 14.5753 81.6926 15.1693 82.1326 15.932C82.5726 16.68 82.7926 17.5233 82.7926 18.462C82.7926 19.518 82.4992 20.4493 81.9126 21.256C81.3406 22.048 80.4972 22.6127 79.3826 22.95L82.8806 29H78.0626ZM74.5206 20.332H76.6546C77.2412 20.332 77.6812 20.1927 77.9746 19.914C78.2679 19.6353 78.4146 19.232 78.4146 18.704C78.4146 18.2053 78.2606 17.8167 77.9526 17.538C77.6592 17.2447 77.2266 17.098 76.6546 17.098H74.5206V20.332ZM86.9315 15.514C86.1688 15.514 85.5528 15.3087 85.0835 14.898C84.6288 14.4727 84.4015 13.9447 84.4015 13.314C84.4015 12.6687 84.6288 12.1333 85.0835 11.708C85.5528 11.2827 86.1688 11.07 86.9315 11.07C87.6795 11.07 88.2808 11.2827 88.7355 11.708C89.2048 12.1333 89.4395 12.6687 89.4395 13.314C89.4395 13.9447 89.2048 14.4727 88.7355 14.898C88.2808 15.3087 87.6795 15.514 86.9315 15.514ZM89.0655 16.658V29H84.7535V16.658H89.0655ZM95.6131 25.414H100.871V29H90.8611V25.59L95.7671 20.244H90.9051V16.658H100.695V20.068L95.6131 25.414ZM106.763 25.414H112.021V29H102.011V25.59L106.917 20.244H102.055V16.658H111.845V20.068L106.763 25.414Z"/>
</mask>
<path d="M15.9542 13.49V29H11.6422V13.49H15.9542ZM26.4837 16.548C27.9064 16.548 29.0357 17.0247 29.8717 17.978C30.7077 18.9167 31.1257 20.1927 31.1257 21.806V29H26.8137V22.378C26.8137 21.674 26.6304 21.124 26.2637 20.728C25.8971 20.3173 25.4057 20.112 24.7897 20.112C24.1444 20.112 23.6384 20.3173 23.2717 20.728C22.9051 21.124 22.7217 21.674 22.7217 22.378V29H18.4097V16.658H22.7217V18.418C23.1031 17.8607 23.6164 17.4133 24.2617 17.076C24.9071 16.724 25.6477 16.548 26.4837 16.548ZM38.7498 29.154C37.6351 29.154 36.6378 28.9707 35.7578 28.604C34.8924 28.2227 34.2031 27.7093 33.6898 27.064C33.1911 26.404 32.9124 25.6633 32.8538 24.842H37.0338C37.0924 25.238 37.2758 25.546 37.5838 25.766C37.8918 25.986 38.2731 26.096 38.7278 26.096C39.0798 26.096 39.3584 26.0227 39.5638 25.876C39.7691 25.7293 39.8718 25.5387 39.8718 25.304C39.8718 24.996 39.7031 24.7687 39.3658 24.622C39.0284 24.4753 38.4711 24.314 37.6938 24.138C36.8138 23.962 36.0804 23.764 35.4938 23.544C34.9071 23.324 34.3938 22.9647 33.9538 22.466C33.5284 21.9673 33.3158 21.2927 33.3158 20.442C33.3158 19.7087 33.5138 19.0487 33.9098 18.462C34.3058 17.8607 34.8851 17.384 35.6478 17.032C36.4251 16.68 37.3564 16.504 38.4418 16.504C40.0551 16.504 41.3238 16.9 42.2478 17.692C43.1718 18.484 43.7071 19.5253 43.8538 20.816H39.9598C39.8864 20.42 39.7104 20.1193 39.4318 19.914C39.1678 19.694 38.8084 19.584 38.3538 19.584C38.0018 19.584 37.7304 19.65 37.5398 19.782C37.3638 19.914 37.2758 20.0973 37.2758 20.332C37.2758 20.6253 37.4444 20.8527 37.7818 21.014C38.1191 21.1607 38.6618 21.3147 39.4098 21.476C40.3044 21.6667 41.0451 21.8793 41.6318 22.114C42.2331 22.3487 42.7538 22.73 43.1938 23.258C43.6484 23.7713 43.8758 24.4753 43.8758 25.37C43.8758 26.0887 43.6631 26.734 43.2378 27.306C42.8271 27.878 42.2331 28.3327 41.4558 28.67C40.6931 28.9927 39.7911 29.154 38.7498 29.154ZM53.2777 25.326V29H51.4077C48.2543 29 46.6777 27.438 46.6777 24.314V20.244H45.1597V16.658H46.6777V13.666H51.0117V16.658H53.2557V20.244H51.0117V24.38C51.0117 24.7173 51.085 24.9593 51.2317 25.106C51.393 25.2527 51.657 25.326 52.0237 25.326H53.2777ZM54.5514 22.818C54.5514 21.542 54.7788 20.4273 55.2334 19.474C55.7028 18.5207 56.3334 17.7873 57.1254 17.274C57.9321 16.7607 58.8268 16.504 59.8094 16.504C60.6601 16.504 61.3934 16.6727 62.0094 17.01C62.6254 17.3473 63.1021 17.802 63.4394 18.374V16.658H67.7514V29H63.4394V27.284C63.1021 27.856 62.6181 28.3107 61.9874 28.648C61.3714 28.9853 60.6454 29.154 59.8094 29.154C58.8268 29.154 57.9321 28.8973 57.1254 28.384C56.3334 27.8707 55.7028 27.1373 55.2334 26.184C54.7788 25.216 54.5514 24.094 54.5514 22.818ZM63.4394 22.818C63.4394 22.026 63.2194 21.4027 62.7794 20.948C62.3541 20.4933 61.8261 20.266 61.1954 20.266C60.5501 20.266 60.0148 20.4933 59.5894 20.948C59.1641 21.388 58.9514 22.0113 58.9514 22.818C58.9514 23.61 59.1641 24.2407 59.5894 24.71C60.0148 25.1647 60.5501 25.392 61.1954 25.392C61.8261 25.392 62.3541 25.1647 62.7794 24.71C63.2194 24.2553 63.4394 23.6247 63.4394 22.818Z" fill="#FE9671"/>
<path d="M78.0626 29L74.9826 23.28H74.5206V29H70.2086V13.49H77.0066C78.2532 13.49 79.3092 13.71 80.1746 14.15C81.0399 14.5753 81.6926 15.1693 82.1326 15.932C82.5726 16.68 82.7926 17.5233 82.7926 18.462C82.7926 19.518 82.4992 20.4493 81.9126 21.256C81.3406 22.048 80.4972 22.6127 79.3826 22.95L82.8806 29H78.0626ZM74.5206 20.332H76.6546C77.2412 20.332 77.6812 20.1927 77.9746 19.914C78.2679 19.6353 78.4146 19.232 78.4146 18.704C78.4146 18.2053 78.2606 17.8167 77.9526 17.538C77.6592 17.2447 77.2266 17.098 76.6546 17.098H74.5206V20.332ZM86.9315 15.514C86.1688 15.514 85.5528 15.3087 85.0835 14.898C84.6288 14.4727 84.4015 13.9447 84.4015 13.314C84.4015 12.6687 84.6288 12.1333 85.0835 11.708C85.5528 11.2827 86.1688 11.07 86.9315 11.07C87.6795 11.07 88.2808 11.2827 88.7355 11.708C89.2048 12.1333 89.4395 12.6687 89.4395 13.314C89.4395 13.9447 89.2048 14.4727 88.7355 14.898C88.2808 15.3087 87.6795 15.514 86.9315 15.514ZM89.0655 16.658V29H84.7535V16.658H89.0655ZM95.6131 25.414H100.871V29H90.8611V25.59L95.7671 20.244H90.9051V16.658H100.695V20.068L95.6131 25.414ZM106.763 25.414H112.021V29H102.011V25.59L106.917 20.244H102.055V16.658H111.845V20.068L106.763 25.414Z" fill="white"/>
<path d="M15.9542 13.49H16.9542V12.49H15.9542V13.49ZM15.9542 29V30H16.9542V29H15.9542ZM11.6422 29H10.6422V30H11.6422V29ZM11.6422 13.49V12.49H10.6422V13.49H11.6422ZM15.9542 13.49H14.9542V29H15.9542H16.9542V13.49H15.9542ZM15.9542 29V28H11.6422V29V30H15.9542V29ZM11.6422 29H12.6422V13.49H11.6422H10.6422V29H11.6422ZM11.6422 13.49V14.49H15.9542V13.49V12.49H11.6422V13.49ZM29.8717 17.978L29.1199 18.6373L29.125 18.6431L29.8717 17.978ZM31.1257 29V30H32.1257V29H31.1257ZM26.8137 29H25.8137V30H26.8137V29ZM26.2637 20.728L25.5178 21.394L25.5238 21.4008L25.53 21.4074L26.2637 20.728ZM23.2717 20.728L24.0055 21.4074L24.0116 21.4008L24.0177 21.394L23.2717 20.728ZM22.7217 29V30H23.7217V29H22.7217ZM18.4097 29H17.4097V30H18.4097V29ZM18.4097 16.658V15.658H17.4097V16.658H18.4097ZM22.7217 16.658H23.7217V15.658H22.7217V16.658ZM22.7217 18.418H21.7217V21.6504L23.547 18.9827L22.7217 18.418ZM24.2617 17.076L24.725 17.9622L24.7328 17.9581L24.7406 17.9539L24.2617 17.076ZM26.4837 16.548V17.548C27.6576 17.548 28.4982 17.9284 29.1199 18.6373L29.8717 17.978L30.6236 17.3187C29.5733 16.121 28.1552 15.548 26.4837 15.548V16.548ZM29.8717 17.978L29.125 18.6431C29.7558 19.3514 30.1257 20.3664 30.1257 21.806H31.1257H32.1257C32.1257 20.019 31.6596 18.4819 30.6185 17.3129L29.8717 17.978ZM31.1257 21.806H30.1257V29H31.1257H32.1257V21.806H31.1257ZM31.1257 29V28H26.8137V29V30H31.1257V29ZM26.8137 29H27.8137V22.378H26.8137H25.8137V29H26.8137ZM26.8137 22.378H27.8137C27.8137 21.501 27.5823 20.6802 26.9975 20.0486L26.2637 20.728L25.53 21.4074C25.6785 21.5678 25.8137 21.847 25.8137 22.378H26.8137ZM26.2637 20.728L27.0097 20.062C26.4295 19.4122 25.6529 19.112 24.7897 19.112V20.112V21.112C25.1586 21.112 25.3646 21.2224 25.5178 21.394L26.2637 20.728ZM24.7897 20.112V19.112C23.9134 19.112 23.1153 19.4017 22.5258 20.062L23.2717 20.728L24.0177 21.394C24.1615 21.233 24.3754 21.112 24.7897 21.112V20.112ZM23.2717 20.728L22.538 20.0486C21.9532 20.6802 21.7217 21.501 21.7217 22.378H22.7217H23.7217C23.7217 21.847 23.857 21.5678 24.0055 21.4074L23.2717 20.728ZM22.7217 22.378H21.7217V29H22.7217H23.7217V22.378H22.7217ZM22.7217 29V28H18.4097V29V30H22.7217V29ZM18.4097 29H19.4097V16.658H18.4097H17.4097V29H18.4097ZM18.4097 16.658V17.658H22.7217V16.658V15.658H18.4097V16.658ZM22.7217 16.658H21.7217V18.418H22.7217H23.7217V16.658H22.7217ZM22.7217 18.418L23.547 18.9827C23.8287 18.571 24.2132 18.2298 24.725 17.9622L24.2617 17.076L23.7985 16.1898C23.0196 16.5969 22.3774 17.1503 21.8964 17.8533L22.7217 18.418ZM24.2617 17.076L24.7406 17.9539C25.2199 17.6925 25.7918 17.548 26.4837 17.548V16.548V15.548C25.5037 15.548 24.5943 15.7555 23.7829 16.1981L24.2617 17.076ZM35.7578 28.604L35.3545 29.5191L35.3638 29.5232L35.3731 29.5271L35.7578 28.604ZM33.6898 27.064L32.8919 27.6668L32.8994 27.6768L32.9072 27.6865L33.6898 27.064ZM32.8538 24.842V23.842H31.7798L31.8563 24.9132L32.8538 24.842ZM37.0338 24.842L38.023 24.6955L37.8965 23.842H37.0338V24.842ZM39.3658 24.622L39.7645 23.7049L39.3658 24.622ZM37.6938 24.138L37.9146 23.1627L37.9023 23.1599L37.8899 23.1574L37.6938 24.138ZM35.4938 23.544L35.1426 24.4803L35.4938 23.544ZM33.9538 22.466L33.1929 23.1149L33.1984 23.1213L33.2039 23.1276L33.9538 22.466ZM33.9098 18.462L34.7387 19.0215L34.7449 19.012L33.9098 18.462ZM35.6478 17.032L35.2352 16.121L35.2287 16.124L35.6478 17.032ZM42.2478 17.692L41.597 18.4513L42.2478 17.692ZM43.8538 20.816V21.816H44.9738L44.8474 20.7031L43.8538 20.816ZM39.9598 20.816L38.9765 20.9981L39.1279 21.816H39.9598V20.816ZM39.4318 19.914L38.7916 20.6822L38.8145 20.7013L38.8386 20.7191L39.4318 19.914ZM37.5398 19.782L36.9706 18.9598L36.955 18.9706L36.9398 18.982L37.5398 19.782ZM37.7818 21.014L37.3503 21.9161L37.3665 21.9239L37.383 21.9311L37.7818 21.014ZM39.4098 21.476L39.1989 22.4535L39.2013 22.454L39.4098 21.476ZM41.6318 22.114L41.2604 23.0425L41.2682 23.0456L41.6318 22.114ZM43.1938 23.258L42.4255 23.8982L42.4352 23.9098L42.4452 23.921L43.1938 23.258ZM43.2378 27.306L42.4353 26.7093L42.4303 26.716L42.4254 26.7228L43.2378 27.306ZM41.4558 28.67L41.8454 29.591L41.8539 29.5873L41.4558 28.67ZM38.7498 29.154V28.154C37.7451 28.154 36.8817 27.989 36.1424 27.6809L35.7578 28.604L35.3731 29.5271C36.3938 29.9524 37.5251 30.154 38.7498 30.154V29.154ZM35.7578 28.604L36.161 27.6889C35.4221 27.3633 34.8709 26.9425 34.4724 26.4415L33.6898 27.064L32.9072 27.6865C33.5353 28.4762 34.3628 29.0821 35.3545 29.5191L35.7578 28.604ZM33.6898 27.064L34.4876 26.4612C34.1049 25.9546 33.8961 25.3984 33.8512 24.7708L32.8538 24.842L31.8563 24.9132C31.9288 25.9283 32.2773 26.8534 32.8919 27.6668L33.6898 27.064ZM32.8538 24.842V25.842H37.0338V24.842V23.842H32.8538V24.842ZM37.0338 24.842L36.0446 24.9885C36.1405 25.6358 36.4598 26.1921 37.0025 26.5797L37.5838 25.766L38.165 24.9523C38.0918 24.8999 38.0444 24.8402 38.023 24.6955L37.0338 24.842ZM37.5838 25.766L37.0025 26.5797C37.512 26.9436 38.1075 27.096 38.7278 27.096V26.096V25.096C38.4386 25.096 38.2716 25.0284 38.165 24.9523L37.5838 25.766ZM38.7278 26.096V27.096C39.2082 27.096 39.7149 26.997 40.145 26.6897L39.5638 25.876L38.9825 25.0623C39.002 25.0484 38.9513 25.096 38.7278 25.096V26.096ZM39.5638 25.876L40.145 26.6897C40.5899 26.3719 40.8718 25.8891 40.8718 25.304H39.8718H38.8718C38.8718 25.27 38.8807 25.2113 38.9143 25.1489C38.9296 25.1204 38.9462 25.0986 38.96 25.0835C38.9735 25.0687 38.9826 25.0622 38.9825 25.0623L39.5638 25.876ZM39.8718 25.304H40.8718C40.8718 24.9554 40.772 24.608 40.5484 24.3067C40.3329 24.0163 40.0469 23.8277 39.7645 23.7049L39.3658 24.622L38.967 25.5391C39.022 25.563 38.9889 25.5614 38.9422 25.4983C38.9186 25.4666 38.899 25.4288 38.8864 25.3886C38.874 25.3493 38.8718 25.3191 38.8718 25.304H39.8718ZM39.3658 24.622L39.7645 23.7049C39.3351 23.5182 38.6994 23.3404 37.9146 23.1627L37.6938 24.138L37.4729 25.1133C38.2428 25.2876 38.7217 25.4324 38.967 25.5391L39.3658 24.622ZM37.6938 24.138L37.8899 23.1574C37.0421 22.9879 36.3648 22.8026 35.8449 22.6077L35.4938 23.544L35.1426 24.4803C35.7961 24.7254 36.5854 24.9361 37.4977 25.1186L37.6938 24.138ZM35.4938 23.544L35.8449 22.6077C35.421 22.4487 35.0421 22.188 34.7036 21.8044L33.9538 22.466L33.2039 23.1276C33.7455 23.7414 34.3932 24.1993 35.1426 24.4803L35.4938 23.544ZM33.9538 22.466L34.7146 21.8171C34.4848 21.5476 34.3158 21.127 34.3158 20.442H33.3158H32.3158C32.3158 21.4583 32.5721 22.387 33.1929 23.1149L33.9538 22.466ZM33.3158 20.442H34.3158C34.3158 19.9004 34.4584 19.4367 34.7386 19.0215L33.9098 18.462L33.0809 17.9025C32.5692 18.6607 32.3158 19.5169 32.3158 20.442H33.3158ZM33.9098 18.462L34.7449 19.012C35.0222 18.5909 35.4448 18.227 36.0668 17.94L35.6478 17.032L35.2287 16.124C34.3253 16.541 33.5893 17.1304 33.0746 17.912L33.9098 18.462ZM35.6478 17.032L36.0603 17.943C36.6778 17.6633 37.4614 17.504 38.4418 17.504V16.504V15.504C37.2515 15.504 36.1724 15.6967 35.2353 16.121L35.6478 17.032ZM38.4418 16.504V17.504C39.8951 17.504 40.9062 17.8591 41.597 18.4513L42.2478 17.692L42.8986 16.9327C41.7414 15.9409 40.2151 15.504 38.4418 15.504V16.504ZM42.2478 17.692L41.597 18.4513C42.3155 19.0671 42.7399 19.8707 42.8602 20.9289L43.8538 20.816L44.8474 20.7031C44.6743 19.1799 44.0281 17.9009 42.8986 16.9327L42.2478 17.692ZM43.8538 20.816V19.816H39.9598V20.816V21.816H43.8538V20.816ZM39.9598 20.816L40.943 20.6339C40.8316 20.0319 40.5412 19.4893 40.025 19.1089L39.4318 19.914L38.8386 20.7191C38.8797 20.7494 38.9413 20.8081 38.9765 20.9981L39.9598 20.816ZM39.4318 19.914L40.072 19.1458C39.5773 18.7335 38.9661 18.584 38.3538 18.584V19.584V20.584C38.6508 20.584 38.7583 20.6545 38.7916 20.6822L39.4318 19.914ZM38.3538 19.584V18.584C37.8971 18.584 37.3945 18.6663 36.9706 18.9598L37.5398 19.782L38.109 20.6042C38.0852 20.6207 38.0824 20.6149 38.1226 20.6052C38.1639 20.5951 38.2378 20.584 38.3538 20.584V19.584ZM37.5398 19.782L36.9398 18.982C36.493 19.317 36.2758 19.807 36.2758 20.332H37.2758H38.2758C38.2758 20.3414 38.2734 20.3885 38.2433 20.4512C38.2122 20.5161 38.1696 20.5597 38.1398 20.582L37.5398 19.782ZM37.2758 20.332H36.2758C36.2758 21.1228 36.78 21.6434 37.3503 21.9161L37.7818 21.014L38.2132 20.1119C38.1461 20.0798 38.1665 20.0743 38.2054 20.1267C38.2256 20.154 38.2452 20.1897 38.2587 20.2314C38.2721 20.2728 38.2758 20.3082 38.2758 20.332H37.2758ZM37.7818 21.014L37.383 21.9311C37.8161 22.1193 38.44 22.2898 39.1989 22.4535L39.4098 21.476L39.6206 20.4985C38.8836 20.3395 38.4221 20.202 38.1805 20.0969L37.7818 21.014ZM39.4098 21.476L39.2013 22.454C40.0627 22.6376 40.7442 22.836 41.2604 23.0425L41.6318 22.114L42.0032 21.1855C41.346 20.9227 40.5462 20.6957 39.6182 20.498L39.4098 21.476ZM41.6318 22.114L41.2682 23.0456C41.702 23.2149 42.0864 23.4913 42.4255 23.8982L43.1938 23.258L43.962 22.6178C43.4211 21.9687 42.7642 21.4825 41.9953 21.1824L41.6318 22.114ZM43.1938 23.258L42.4452 23.921C42.6937 24.2016 42.8758 24.6435 42.8758 25.37H43.8758H44.8758C44.8758 24.3071 44.6032 23.3411 43.9424 22.595L43.1938 23.258ZM43.8758 25.37H42.8758C42.8758 25.8756 42.7312 26.3113 42.4353 26.7093L43.2378 27.306L44.0402 27.9027C44.595 27.1567 44.8758 26.3017 44.8758 25.37H43.8758ZM43.2378 27.306L42.4254 26.7228C42.1397 27.1207 41.7031 27.4726 41.0577 27.7527L41.4558 28.67L41.8539 29.5873C42.7631 29.1928 43.5145 28.6353 44.0501 27.8892L43.2378 27.306ZM41.4558 28.67L41.0661 27.749C40.4541 28.008 39.6905 28.154 38.7498 28.154V29.154V30.154C39.8917 30.154 40.9321 29.9774 41.8454 29.591L41.4558 28.67ZM53.2777 25.326H54.2777V24.326H53.2777V25.326ZM53.2777 29V30H54.2777V29H53.2777ZM46.6777 20.244H47.6777V19.244H46.6777V20.244ZM45.1597 20.244H44.1597V21.244H45.1597V20.244ZM45.1597 16.658V15.658H44.1597V16.658H45.1597ZM46.6777 16.658V17.658H47.6777V16.658H46.6777ZM46.6777 13.666V12.666H45.6777V13.666H46.6777ZM51.0117 13.666H52.0117V12.666H51.0117V13.666ZM51.0117 16.658H50.0117V17.658H51.0117V16.658ZM53.2557 16.658H54.2557V15.658H53.2557V16.658ZM53.2557 20.244V21.244H54.2557V20.244H53.2557ZM51.0117 20.244V19.244H50.0117V20.244H51.0117ZM51.2317 25.106L50.5246 25.8131L50.5414 25.8299L50.559 25.8459L51.2317 25.106ZM53.2777 25.326H52.2777V29H53.2777H54.2777V25.326H53.2777ZM53.2777 29V28H51.4077V29V30H53.2777V29ZM51.4077 29V28C49.9828 28 49.0983 27.6475 48.564 27.1181C48.0313 26.5904 47.6777 25.7195 47.6777 24.314H46.6777H45.6777C45.6777 26.0325 46.1123 27.5046 47.1564 28.5389C48.1987 29.5715 49.6792 30 51.4077 30V29ZM46.6777 24.314H47.6777V20.244H46.6777H45.6777V24.314H46.6777ZM46.6777 20.244V19.244H45.1597V20.244V21.244H46.6777V20.244ZM45.1597 20.244H46.1597V16.658H45.1597H44.1597V20.244H45.1597ZM45.1597 16.658V17.658H46.6777V16.658V15.658H45.1597V16.658ZM46.6777 16.658H47.6777V13.666H46.6777H45.6777V16.658H46.6777ZM46.6777 13.666V14.666H51.0117V13.666V12.666H46.6777V13.666ZM51.0117 13.666H50.0117V16.658H51.0117H52.0117V13.666H51.0117ZM51.0117 16.658V17.658H53.2557V16.658V15.658H51.0117V16.658ZM53.2557 16.658H52.2557V20.244H53.2557H54.2557V16.658H53.2557ZM53.2557 20.244V19.244H51.0117V20.244V21.244H53.2557V20.244ZM51.0117 20.244H50.0117V24.38H51.0117H52.0117V20.244H51.0117ZM51.0117 24.38H50.0117C50.0117 24.8238 50.102 25.3905 50.5246 25.8131L51.2317 25.106L51.9388 24.3989C52.0047 24.4648 52.023 24.5222 52.0237 24.5245C52.0239 24.5252 52.0207 24.5146 52.0175 24.4895C52.0143 24.4646 52.0117 24.4286 52.0117 24.38H51.0117ZM51.2317 25.106L50.559 25.8459C50.9947 26.2421 51.5658 26.326 52.0237 26.326V25.326V24.326C51.9023 24.326 51.8395 24.3134 51.8183 24.3075C51.7992 24.3022 51.8435 24.3107 51.9043 24.3661L51.2317 25.106ZM52.0237 25.326V26.326H53.2777V25.326V24.326H52.0237V25.326ZM55.2334 19.474L54.3362 19.0323L54.3308 19.0435L55.2334 19.474ZM57.1254 17.274L56.5885 16.4303L56.5815 16.4348L57.1254 17.274ZM62.0094 17.01L61.5291 17.8871V17.8871L62.0094 17.01ZM63.4394 18.374L62.5781 18.882L64.4394 22.0382V18.374H63.4394ZM63.4394 16.658V15.658H62.4394V16.658H63.4394ZM67.7514 16.658H68.7514V15.658H67.7514V16.658ZM67.7514 29V30H68.7514V29H67.7514ZM63.4394 29H62.4394V30H63.4394V29ZM63.4394 27.284H64.4394V23.6198L62.5781 26.776L63.4394 27.284ZM61.9874 28.648L61.5158 27.7662L61.5071 27.7709L61.9874 28.648ZM57.1254 28.384L56.5815 29.2232L56.5886 29.2277L57.1254 28.384ZM55.2334 26.184L54.3283 26.6091L54.3322 26.6174L54.3363 26.6257L55.2334 26.184ZM62.7794 20.948L62.0492 21.6312L62.055 21.6373L62.0608 21.6434L62.7794 20.948ZM59.5894 20.948L60.3084 21.643L60.3141 21.6371L60.3197 21.6312L59.5894 20.948ZM59.5894 24.71L58.8484 25.3815L58.8538 25.3874L58.8592 25.3932L59.5894 24.71ZM62.7794 24.71L62.0608 24.0146L62.055 24.0207L62.0492 24.0268L62.7794 24.71ZM54.5514 22.818H55.5514C55.5514 21.6604 55.7575 20.6983 56.136 19.9045L55.2334 19.474L54.3308 19.0435C53.8001 20.1564 53.5514 21.4236 53.5514 22.818H54.5514ZM55.2334 19.474L56.1306 19.9157C56.5305 19.1034 57.0472 18.5164 57.6693 18.1132L57.1254 17.274L56.5815 16.4348C55.6197 17.0583 54.8751 17.9379 54.3363 19.0323L55.2334 19.474ZM57.1254 17.274L57.6623 18.1177C58.3039 17.7094 59.0114 17.504 59.8094 17.504V16.504V15.504C58.6422 15.504 57.5603 15.812 56.5886 16.4303L57.1254 17.274ZM59.8094 16.504V17.504C60.5275 17.504 61.0885 17.6458 61.5291 17.8871L62.0094 17.01L62.4898 16.1329C61.6984 15.6996 60.7928 15.504 59.8094 15.504V16.504ZM62.0094 17.01L61.5291 17.8871C61.9967 18.1431 62.3375 18.4741 62.5781 18.882L63.4394 18.374L64.3008 17.866C63.8667 17.1299 63.2542 16.5515 62.4898 16.1329L62.0094 17.01ZM63.4394 18.374H64.4394V16.658H63.4394H62.4394V18.374H63.4394ZM63.4394 16.658V17.658H67.7514V16.658V15.658H63.4394V16.658ZM67.7514 16.658H66.7514V29H67.7514H68.7514V16.658H67.7514ZM67.7514 29V28H63.4394V29V30H67.7514V29ZM63.4394 29H64.4394V27.284H63.4394H62.4394V29H63.4394ZM63.4394 27.284L62.5781 26.776C62.3411 27.1779 61.9977 27.5085 61.5158 27.7662L61.9874 28.648L62.4591 29.5298C63.2385 29.1129 63.8631 28.5341 64.3008 27.792L63.4394 27.284ZM61.9874 28.648L61.5071 27.7709C61.064 28.0135 60.5095 28.154 59.8094 28.154V29.154V30.154C60.7814 30.154 61.6788 29.9571 62.4678 29.5251L61.9874 28.648ZM59.8094 29.154V28.154C59.0114 28.154 58.3039 27.9486 57.6623 27.5403L57.1254 28.384L56.5886 29.2277C57.5603 29.846 58.6422 30.154 59.8094 30.154V29.154ZM57.1254 28.384L57.6693 27.5448C57.0472 27.1416 56.5305 26.5546 56.1306 25.7423L55.2334 26.184L54.3363 26.6257C54.8751 27.7201 55.6197 28.5997 56.5815 29.2232L57.1254 28.384ZM55.2334 26.184L56.1386 25.7589C55.7573 24.9471 55.5514 23.9751 55.5514 22.818H54.5514H53.5514C53.5514 24.2129 53.8003 25.4849 54.3283 26.6091L55.2334 26.184ZM63.4394 22.818H64.4394C64.4394 21.8351 64.1612 20.9379 63.498 20.2526L62.7794 20.948L62.0608 21.6434C62.2777 21.8675 62.4394 22.2169 62.4394 22.818H63.4394ZM62.7794 20.948L63.5097 20.2648C62.8925 19.6051 62.0988 19.266 61.1954 19.266V20.266V21.266C61.5534 21.266 61.8157 21.3816 62.0492 21.6312L62.7794 20.948ZM61.1954 20.266V19.266C60.2847 19.266 59.4812 19.5999 58.8592 20.2648L59.5894 20.948L60.3197 21.6312C60.5483 21.3868 60.8155 21.266 61.1954 21.266V20.266ZM59.5894 20.948L58.8704 20.253C58.2133 20.9328 57.9514 21.8371 57.9514 22.818H58.9514H59.9514C59.9514 22.1855 60.1149 21.8432 60.3084 21.643L59.5894 20.948ZM58.9514 22.818H57.9514C57.9514 23.7935 58.2176 24.6854 58.8484 25.3815L59.5894 24.71L60.3304 24.0385C60.1106 23.796 59.9514 23.4265 59.9514 22.818H58.9514ZM59.5894 24.71L58.8592 25.3932C59.4812 26.0581 60.2847 26.392 61.1954 26.392V25.392V24.392C60.8155 24.392 60.5483 24.2712 60.3197 24.0268L59.5894 24.71ZM61.1954 25.392V26.392C62.0988 26.392 62.8925 26.0529 63.5097 25.3932L62.7794 24.71L62.0492 24.0268C61.8157 24.2764 61.5534 24.392 61.1954 24.392V25.392ZM62.7794 24.71L63.498 25.4054C64.1644 24.7168 64.4394 23.8097 64.4394 22.818H63.4394H62.4394C62.4394 23.4396 62.2744 23.7939 62.0608 24.0146L62.7794 24.71ZM78.0626 29L77.1821 29.4741L77.4653 30H78.0626V29ZM74.9826 23.28L75.863 22.8059L75.5799 22.28H74.9826V23.28ZM74.5206 23.28V22.28H73.5206V23.28H74.5206ZM74.5206 29V30H75.5206V29H74.5206ZM70.2086 29H69.2086V30H70.2086V29ZM70.2086 13.49V12.49H69.2086V13.49H70.2086ZM80.1746 14.15L79.7213 15.0415L79.7334 15.0474L80.1746 14.15ZM82.1326 15.932L81.2663 16.4317L81.2706 16.439L82.1326 15.932ZM81.9126 21.256L81.1038 20.6678L81.1019 20.6705L81.9126 21.256ZM79.3826 22.95L79.0929 21.9929L77.8853 22.3583L78.5168 23.4505L79.3826 22.95ZM82.8806 29V30H84.6139L83.7463 28.4995L82.8806 29ZM74.5206 20.332H73.5206V21.332H74.5206V20.332ZM77.9746 19.914L77.2858 19.189L77.9746 19.914ZM77.9526 17.538L77.2455 18.2451L77.2631 18.2628L77.2816 18.2795L77.9526 17.538ZM74.5206 17.098V16.098H73.5206V17.098H74.5206ZM78.0626 29L78.943 28.5259L75.863 22.8059L74.9826 23.28L74.1021 23.7541L77.1821 29.4741L78.0626 29ZM74.9826 23.28V22.28H74.5206V23.28V24.28H74.9826V23.28ZM74.5206 23.28H73.5206V29H74.5206H75.5206V23.28H74.5206ZM74.5206 29V28H70.2086V29V30H74.5206V29ZM70.2086 29H71.2086V13.49H70.2086H69.2086V29H70.2086ZM70.2086 13.49V14.49H77.0066V13.49V12.49H70.2086V13.49ZM77.0066 13.49V14.49C78.1391 14.49 79.0306 14.6902 79.7213 15.0414L80.1746 14.15L80.6278 13.2586C79.5879 12.7298 78.3674 12.49 77.0066 12.49V13.49ZM80.1746 14.15L79.7334 15.0474C80.4384 15.394 80.9349 15.8571 81.2664 16.4317L82.1326 15.932L82.9987 15.4323C82.4502 14.4815 81.6413 13.7567 80.6157 13.2526L80.1746 14.15ZM82.1326 15.932L81.2706 16.439C81.6129 17.0209 81.7926 17.6866 81.7926 18.462H82.7926H83.7926C83.7926 17.3601 83.5322 16.3391 82.9945 15.425L82.1326 15.932ZM82.7926 18.462H81.7926C81.7926 19.3198 81.5586 20.0424 81.1038 20.6678L81.9126 21.256L82.7213 21.8442C83.4398 20.8562 83.7926 19.7162 83.7926 18.462H82.7926ZM81.9126 21.256L81.1019 20.6705C80.6815 21.2526 80.0395 21.7064 79.0929 21.9929L79.3826 22.95L79.6722 23.9071C80.955 23.5189 81.9997 22.8434 82.7232 21.8415L81.9126 21.256ZM79.3826 22.95L78.5168 23.4505L82.0148 29.5005L82.8806 29L83.7463 28.4995L80.2483 22.4495L79.3826 22.95ZM82.8806 29V28H78.0626V29V30H82.8806V29ZM74.5206 20.332V21.332H76.6546V20.332V19.332H74.5206V20.332ZM76.6546 20.332V21.332C77.3829 21.332 78.115 21.1599 78.6633 20.639L77.9746 19.914L77.2858 19.189C77.2475 19.2254 77.0995 19.332 76.6546 19.332V20.332ZM77.9746 19.914L78.6633 20.639C79.2111 20.1186 79.4146 19.4184 79.4146 18.704H78.4146H77.4146C77.4146 19.0456 77.3247 19.1521 77.2858 19.189L77.9746 19.914ZM78.4146 18.704H79.4146C79.4146 17.9844 79.1827 17.3025 78.6235 16.7965L77.9526 17.538L77.2816 18.2795C77.3384 18.3309 77.4146 18.4263 77.4146 18.704H78.4146ZM77.9526 17.538L78.6597 16.8309C78.117 16.2882 77.3892 16.098 76.6546 16.098V17.098V18.098C77.0639 18.098 77.2015 18.2011 77.2455 18.2451L77.9526 17.538ZM76.6546 17.098V16.098H74.5206V17.098V18.098H76.6546V17.098ZM74.5206 17.098H73.5206V20.332H74.5206H75.5206V17.098H74.5206ZM85.0835 14.898L84.4003 15.6283L84.4125 15.6396L84.425 15.6506L85.0835 14.898ZM85.0835 11.708L84.412 10.967L84.4061 10.9723L84.4003 10.9777L85.0835 11.708ZM88.7355 11.708L88.0523 12.4383L88.0581 12.4437L88.064 12.449L88.7355 11.708ZM88.7355 14.898L89.4058 15.6401L89.407 15.639L88.7355 14.898ZM89.0655 16.658H90.0655V15.658H89.0655V16.658ZM89.0655 29V30H90.0655V29H89.0655ZM84.7535 29H83.7535V30H84.7535V29ZM84.7535 16.658V15.658H83.7535V16.658H84.7535ZM86.9315 15.514V14.514C86.3547 14.514 85.9907 14.363 85.742 14.1454L85.0835 14.898L84.425 15.6506C85.1149 16.2543 85.9829 16.514 86.9315 16.514V15.514ZM85.0835 14.898L85.7666 14.1677C85.5171 13.9342 85.4015 13.672 85.4015 13.314H84.4015H83.4015C83.4015 14.2174 83.7406 15.0111 84.4003 15.6283L85.0835 14.898ZM84.4015 13.314H85.4015C85.4015 12.934 85.5223 12.6669 85.7666 12.4383L85.0835 11.708L84.4003 10.9777C83.7354 11.5998 83.4015 12.4033 83.4015 13.314H84.4015ZM85.0835 11.708L85.755 12.449C86.0044 12.223 86.3637 12.07 86.9315 12.07V11.07V10.07C85.974 10.07 85.1013 10.3423 84.412 10.967L85.0835 11.708ZM86.9315 11.07V12.07C87.4799 12.07 87.819 12.22 88.0523 12.4383L88.7355 11.708L89.4186 10.9777C88.7427 10.3453 87.8791 10.07 86.9315 10.07V11.07ZM88.7355 11.708L88.064 12.449C88.3197 12.6807 88.4395 12.9449 88.4395 13.314H89.4395H90.4395C90.4395 12.3924 90.09 11.5859 89.407 10.967L88.7355 11.708ZM89.4395 13.314H88.4395C88.4395 13.661 88.3252 13.9203 88.064 14.157L88.7355 14.898L89.407 15.639C90.0845 15.025 90.4395 14.2283 90.4395 13.314H89.4395ZM88.7355 14.898L88.0652 14.1559C87.8328 14.3658 87.4892 14.514 86.9315 14.514V15.514V16.514C87.8698 16.514 88.7288 16.2516 89.4058 15.6401L88.7355 14.898ZM89.0655 16.658H88.0655V29H89.0655H90.0655V16.658H89.0655ZM89.0655 29V28H84.7535V29V30H89.0655V29ZM84.7535 29H85.7535V16.658H84.7535H83.7535V29H84.7535ZM84.7535 16.658V17.658H89.0655V16.658V15.658H84.7535V16.658ZM95.6131 25.414L94.8883 24.725L93.2827 26.414H95.6131V25.414ZM100.871 25.414H101.871V24.414H100.871V25.414ZM100.871 29V30H101.871V29H100.871ZM90.8611 29H89.8611V30H90.8611V29ZM90.8611 25.59L90.1243 24.9139L89.8611 25.2007V25.59H90.8611ZM95.7671 20.244L96.5038 20.9201L98.042 19.244H95.7671V20.244ZM90.9051 20.244H89.9051V21.244H90.9051V20.244ZM90.9051 16.658V15.658H89.9051V16.658H90.9051ZM100.695 16.658H101.695V15.658H100.695V16.658ZM100.695 20.068L101.42 20.757L101.695 20.4675V20.068H100.695ZM95.6131 25.414V26.414H100.871V25.414V24.414H95.6131V25.414ZM100.871 25.414H99.8711V29H100.871H101.871V25.414H100.871ZM100.871 29V28H90.8611V29V30H100.871V29ZM90.8611 29H91.8611V25.59H90.8611H89.8611V29H90.8611ZM90.8611 25.59L91.5978 26.2661L96.5038 20.9201L95.7671 20.244L95.0303 19.5679L90.1243 24.9139L90.8611 25.59ZM95.7671 20.244V19.244H90.9051V20.244V21.244H95.7671V20.244ZM90.9051 20.244H91.9051V16.658H90.9051H89.9051V20.244H90.9051ZM90.9051 16.658V17.658H100.695V16.658V15.658H90.9051V16.658ZM100.695 16.658H99.6951V20.068H100.695H101.695V16.658H100.695ZM100.695 20.068L99.9703 19.379L94.8883 24.725L95.6131 25.414L96.3378 26.103L101.42 20.757L100.695 20.068ZM106.763 25.414L106.039 24.725L104.433 26.414H106.763V25.414ZM112.021 25.414H113.021V24.414H112.021V25.414ZM112.021 29V30H113.021V29H112.021ZM102.011 29H101.011V30H102.011V29ZM102.011 25.59L101.275 24.9139L101.011 25.2007V25.59H102.011ZM106.917 20.244L107.654 20.9201L109.192 19.244H106.917V20.244ZM102.055 20.244H101.055V21.244H102.055V20.244ZM102.055 16.658V15.658H101.055V16.658H102.055ZM111.845 16.658H112.845V15.658H111.845V16.658ZM111.845 20.068L112.57 20.757L112.845 20.4675V20.068H111.845ZM106.763 25.414V26.414H112.021V25.414V24.414H106.763V25.414ZM112.021 25.414H111.021V29H112.021H113.021V25.414H112.021ZM112.021 29V28H102.011V29V30H112.021V29ZM102.011 29H103.011V25.59H102.011H101.011V29H102.011ZM102.011 25.59L102.748 26.2661L107.654 20.9201L106.917 20.244L106.181 19.5679L101.275 24.9139L102.011 25.59ZM106.917 20.244V19.244H102.055V20.244V21.244H106.917V20.244ZM102.055 20.244H103.055V16.658H102.055H101.055V20.244H102.055ZM102.055 16.658V17.658H111.845V16.658V15.658H102.055V16.658ZM111.845 16.658H110.845V20.068H111.845H112.845V16.658H111.845ZM111.845 20.068L111.121 19.379L106.039 24.725L106.763 25.414L107.488 26.103L112.57 20.757L111.845 20.068Z" fill="black" mask="url(#path-1-outside-1_32_94)"/>
</g>
<defs>
<filter id="filter0_d_32_94" x="0.642151" y="0.0700073" width="122.379" height="40.084" filterUnits="userSpaceOnUse" color-interpolation-filters="sRGB">
<feFlood flood-opacity="0" result="BackgroundImageFix"/>
<feColorMatrix in="SourceAlpha" type="matrix" values="0 0 0 0 0 0 0 0 0 0 0 0 0 0 0 0 0 0 127 0" result="hardAlpha"/>
<feOffset/>
<feGaussianBlur stdDeviation="5"/>
<feComposite in2="hardAlpha" operator="out"/>
<feColorMatrix type="matrix" values="0 0 0 0 0 0 0 0 0 0 0 0 0 0 0 0 0 0 0.7 0"/>
<feBlend mode="normal" in2="BackgroundImageFix" result="effect1_dropShadow_32_94"/>
<feBlend mode="normal" in="SourceGraphic" in2="effect1_dropShadow_32_94" result="shape"/>
</filter>
</defs>
</svg>
